<?xml version="1.0" standalone="no"?>
<!DOCTYPE svg PUBLIC "-//W3C//DTD SVG 20010904//EN"
 "http://www.w3.org/TR/2001/REC-SVG-20010904/DTD/svg10.dtd">
<svg version="1.0" xmlns="http://www.w3.org/2000/svg"
 width="300.000000pt" height="300.000000pt" viewBox="0 0 300.000000 300.000000"
 preserveAspectRatio="xMidYMid meet">
<metadata>
Created by potrace 1.16, written by Peter Selinger 2001-2019
</metadata>
<g transform="translate(0.000000,300.000000) scale(0.100000,-0.100000)"
fill="#000000" stroke="none">
<path d="M1310 2979 c-30 -4 -82 -13 -115 -19 -33 -6 -70 -12 -82 -13 -13 -1
-23 -6 -23 -11 0 -5 -2 -7 -6 -4 -4 5 -78 -18 -174 -54 -137 -53 -329 -179
-457 -301 -198 -190 -325 -395 -409 -662 l-38 -120 -4 -277 c-4 -271 -3 -280
22 -380 43 -172 111 -330 204 -473 25 -38 48 -72 51 -75 3 -3 26 -30 51 -60
25 -30 62 -70 82 -90 21 -19 38 -41 38 -47 0 -7 6 -13 14 -13 8 0 23 -11 34
-25 11 -14 24 -25 29 -25 4 0 19 -10 33 -22 78 -71 278 -179 412 -224 75 -25
99 -28 248 -31 91 -2 186 -4 211 -6 l46 -2 5 776 c3 427 3 1090 0 1473 l-5
696 -56 -1 c-31 -1 -81 -5 -111 -10z m89 -835 c19 -14 22 -23 18 -51 -8 -47
-90 -207 -231 -448 -132 -226 -244 -441 -234 -450 3 -4 58 3 122 14 146 27
176 27 176 3 0 -23 -44 -84 -96 -134 -65 -62 -99 -71 -274 -76 -260 -6 -278
10 -217 190 69 203 314 728 395 847 20 30 49 63 64 74 58 43 232 62 277 31z"/>
<path d="M2153 2086 c-90 -23 -181 -74 -249 -141 -78 -76 -116 -152 -122 -243
-4 -55 0 -71 27 -125 17 -34 62 -96 101 -137 39 -41 82 -97 97 -125 46 -87 32
-200 -29 -231 -62 -32 -103 15 -123 142 -8 48 -20 93 -27 101 -25 31 -134 -4
-210 -67 -69 -57 -59 -130 30 -219 89 -89 213 -132 321 -111 215 41 413 300
372 486 -14 60 -47 116 -120 199 -29 33 -62 77 -72 97 -36 70 -19 161 43 225
25 25 35 30 49 22 38 -20 50 -141 24 -239 -19 -71 -19 -70 8 -70 57 0 171 105
213 194 44 95 25 177 -53 223 -38 22 -59 26 -136 29 -55 2 -113 -2 -144 -10z"/>
</g>
</svg>
