<?xml version="1.0" standalone="no"?>
<!DOCTYPE svg PUBLIC "-//W3C//DTD SVG 20010904//EN"
 "http://www.w3.org/TR/2001/REC-SVG-20010904/DTD/svg10.dtd">
<svg version="1.0" xmlns="http://www.w3.org/2000/svg"
 width="114.000000pt" height="114.000000pt" viewBox="0 0 114.000000 114.000000"
 preserveAspectRatio="xMidYMid meet">
<metadata>
Created by potrace 1.16, written by Peter Selinger 2001-2019
</metadata>
<g transform="translate(0.000000,114.000000) scale(0.100000,-0.100000)"
fill="#000000" stroke="none">
<path d="M509 1136 c-2 -2 -27 -7 -55 -10 -164 -17 -324 -141 -408 -316 l-41
-85 0 -160 0 -160 41 -85 c91 -189 250 -300 432 -300 l79 0 5 293 c3 160 3
412 0 560 -5 267 -5 267 -27 267 -12 0 -24 -2 -26 -4z m27 -331 c6 -14 -16
-58 -121 -243 -32 -56 -56 -104 -54 -106 2 -3 26 0 53 5 27 5 52 7 54 4 10
-10 -20 -52 -48 -68 -31 -19 -144 -23 -170 -7 -13 8 -12 18 8 77 39 112 138
309 168 332 32 25 101 29 110 6z"/>
<path d="M795 786 c-22 -9 -57 -33 -77 -55 -32 -34 -38 -47 -38 -85 0 -38 6
-52 45 -98 40 -46 46 -58 43 -93 -2 -32 -7 -41 -25 -43 -19 -3 -24 4 -36 45
-8 26 -20 49 -28 51 -27 5 -79 -36 -79 -62 0 -32 59 -83 106 -92 93 -17 203
98 180 189 -3 13 -21 43 -41 68 -39 49 -44 85 -16 120 l18 23 12 -23 c8 -14
10 -38 6 -62 -9 -51 11 -52 54 -4 34 40 42 93 16 115 -23 19 -95 22 -140 6z"/>
</g>
</svg>
